# xmcd
#
# Track frame offsets:
#	150
#	12757
#	30247
#	41835
#	52842
#	63577
#	76150
#	91935
#	100660
#	110260
#	119277
#	129852
#
# Disc length: 1876 seconds
#
# Revision: 1
# Processed by: cddbd v1.4PL0 Copyright (c) Steve Scherf et al.
# Submitted via: audiograbber 1.81.01
#
DISCID=8207520c
DTITLE=Various Artist - Country Juke-Box Hits 4
DYEAR=1990
DGENRE=Country
TTITLE0=Roy Orbison - Crying
TTITLE1=Kenny Rogers - Something 's Burning
TTITLE2=Jerry Lee Lewis - Your Cheatin' Heart
TTITLE3=Johnny Cash - I Love You Because
TTITLE4=Charlie Rich - Unchained Melody
TTITLE5=Jeaanny C. Riley - Roses and Thorns
TTITLE6=Kris Kristofferson - Why Me
TTITLE7=Waylon Jennings - Love's Gonna Live Here
TTITLE8=Dolly Parton - Something Fishy
TTITLE9=Webb Pierce - I Ain't Never
TTITLE10=Roy Drusky - Strangers
TTITLE11=Hank Locklin - Send Me The Pillow That You Dream On
EXTD=
EXTT0=
EXTT1=
EXTT2=
EXTT3=
EXTT4=
EXTT5=
EXTT6=
EXTT7=
EXTT8=
EXTT9=
EXTT10=
EXTT11=
PLAYORDER=
